PathFileType	4	(X/Y/Z)	C:/Users/Carlo/Dropbox/Carlos/SARAH/CongressoMarcha2025/WorkshopOpenSim/C3D/Caso02/Static.c3d.trc
DataRate	CameraRate	NumFrames	NumMarkers	Units	OrigDataRate	OrigDataStartFrame	OrigNumFrames
100.000000	100.000000	2	141	mm	100.000000	87	100
Frame#	Time	LFHD			RFHD			LBHD			RBHD			C7			T10			CLAV			STRN			RBAK			LSHO			LUPA			LELB			LFRM			LWRA			LWRB			LFIN			RSHO			RUPA			RELB			RFRM			RWRA			RWRB			RFIN			LASI			RASI			LPSI			RPSI			LTHI			LKNE			LTIB			LANK			LHEE			LTOE			RTHI			RKNE			RTIB			RANK			RHEE			RTOE			PELO			PELA			PELL			PELP			LFEO			LFEA			LFEL			LFEP			LTIO			LTIA			LTIL			LTIP			LFOO			LFOA			LFOL			LFOP			LTOO			LTOA			LTOL			LTOP			RFEO			RFEA			RFEL			RFEP			RTIO			RTIA			RTIL			RTIP			RFOO			RFOA			RFOL			RFOP			RTOO			RTOA			RTOL			RTOP			HEDO			HEDA			HEDL			HEDP			LCLO			LCLA			LCLL			LCLP			RCLO			RCLA			RCLL			RCLP			TRXO			TRXA			TRXL			TRXP			LHUO			LHUA			LHUL			LHUP			LRAO			LRAA			LRAL			LRAP			LHNO			LHNA			LHNL			LHNP			RHUO			RHUA			RHUL			RHUP			RRAO			RRAA			RRAL			RRAP			RHNO			RHNA			RHNL			RHNP			LHipAngles			LKneeAngles			LAbsAnkleAngle			LAnkleAngles			RHipAngles			RKneeAngles			RAnkleAngles			RAbsAnkleAngle			LPelvisAngles			RPelvisAngles			LFootProgressAngles			RFootProgressAngles			RNeckAngles			LNeckAngles			RSpineAngles			LSpineAngles			LShoulderAngles			LElbowAngles			LWristAngles			RShoulderAngles			RElbowAngles			RWristAngles			RThoraxAngles			LThoraxAngles			RHeadAngles			LHeadAngles			
		X1	Y1	Z1	X2	Y2	Z2	X3	Y3	Z3	X4	Y4	Z4	X5	Y5	Z5	X6	Y6	Z6	X7	Y7	Z7	X8	Y8	Z8	X9	Y9	Z9	X10	Y10	Z10	X11	Y11	Z11	X12	Y12	Z12	X13	Y13	Z13	X14	Y14	Z14	X15	Y15	Z15	X16	Y16	Z16	X17	Y17	Z17	X18	Y18	Z18	X19	Y19	Z19	X20	Y20	Z20	X21	Y21	Z21	X22	Y22	Z22	X23	Y23	Z23	X24	Y24	Z24	X25	Y25	Z25	X26	Y26	Z26	X27	Y27	Z27	X28	Y28	Z28	X29	Y29	Z29	X30	Y30	Z30	X31	Y31	Z31	X32	Y32	Z32	X33	Y33	Z33	X34	Y34	Z34	X35	Y35	Z35	X36	Y36	Z36	X37	Y37	Z37	X38	Y38	Z38	X39	Y39	Z39	X40	Y40	Z40	X41	Y41	Z41	X42	Y42	Z42	X43	Y43	Z43	X44	Y44	Z44	X45	Y45	Z45	X46	Y46	Z46	X47	Y47	Z47	X48	Y48	Z48	X49	Y49	Z49	X50	Y50	Z50	X51	Y51	Z51	X52	Y52	Z52	X53	Y53	Z53	X54	Y54	Z54	X55	Y55	Z55	X56	Y56	Z56	X57	Y57	Z57	X58	Y58	Z58	X59	Y59	Z59	X60	Y60	Z60	X61	Y61	Z61	X62	Y62	Z62	X63	Y63	Z63	X64	Y64	Z64	X65	Y65	Z65	X66	Y66	Z66	X67	Y67	Z67	X68	Y68	Z68	X69	Y69	Z69	X70	Y70	Z70	X71	Y71	Z71	X72	Y72	Z72	X73	Y73	Z73	X74	Y74	Z74	X75	Y75	Z75	X76	Y76	Z76	X77	Y77	Z77	X78	Y78	Z78	X79	Y79	Z79	X80	Y80	Z80	X81	Y81	Z81	X82	Y82	Z82	X83	Y83	Z83	X84	Y84	Z84	X85	Y85	Z85	X86	Y86	Z86	X87	Y87	Z87	X88	Y88	Z88	X89	Y89	Z89	X90	Y90	Z90	X91	Y91	Z91	X92	Y92	Z92	X93	Y93	Z93	X94	Y94	Z94	X95	Y95	Z95	X96	Y96	Z96	X97	Y97	Z97	X98	Y98	Z98	X99	Y99	Z99	X100	Y100	Z100	X101	Y101	Z101	X102	Y102	Z102	X103	Y103	Z103	X104	Y104	Z104	X105	Y105	Z105	X106	Y106	Z106	X107	Y107	Z107	X108	Y108	Z108	X109	Y109	Z109	X110	Y110	Z110	X111	Y111	Z111	X112	Y112	Z112	X113	Y113	Z113	X114	Y114	Z114	X115	Y115	Z115	X116	Y116	Z116	X117	Y117	Z117	X118	Y118	Z118	X119	Y119	Z119	X120	Y120	Z120	X121	Y121	Z121	X122	Y122	Z122	X123	Y123	Z123	X124	Y124	Z124	X125	Y125	Z125	X126	Y126	Z126	X127	Y127	Z127	X128	Y128	Z128	X129	Y129	Z129	X130	Y130	Z130	X131	Y131	Z131	X132	Y132	Z132	X133	Y133	Z133	X134	Y134	Z134	X135	Y135	Z135	X136	Y136	Z136	X137	Y137	Z137	X138	Y138	Z138	X139	Y139	Z139	X140	Y140	Z140	X141	Y141	Z141	

88	0.87	-350.3893127441407	1742.010375976563	391.8167419433596	-475.8361511230471	1732.152954101563	369.8773193359376	-324.6076660156251	1697.506469726563	243.2709350585939	-465.9855957031252	1697.461669921876	232.3157958984376	-400.9673461914065	1518.706787109375	213.0438232421876	-402.9207458496096	1255.754150390625	167.0952911376954	-408.2780761718752	1467.48828125	357.6426391601564	-407.416931152344	1288.107543945313	407.9580383300784	-451.4661560058596	1350.103393554688	143.036605834961	-222.9981994628907	1501.122192382813	260.9377441406251	-91.98742675781253	1455.268432617188	273.3594970703126	59.95244598388675	1403.255859375	297.539520263672	37.78204345703126	1409.932739257813	429.4772033691409	-73.50539398193362	1395.411865234375	525.199157714844	-4.414346694946291	1391.701049804688	559.1597900390627	-57.44417572021487	1419.514526367188	620.109558105469	-587.1619873046877	1505.210571289063	248.9549407958986	-756.8833007812502	1437.431518554688	228.9999847412111	-864.2363891601567	1400.638305664063	244.3844451904298	-833.931518554688	1442.181396484375	379.9806213378907	-781.872924804688	1439.983520507813	494.581970214844	-857.199829101563	1431.499267578125	505.000183105469	-812.1782226562505	1466.92138671875	576.8467407226565	-300.964080810547	1026.018432617188	362.7845764160157	-518.322204589844	1030.759521484375	363.6199645996095	-345.7051086425782	1034.766723632813	173.3069152832032	-483.6883850097659	1031.867431640625	172.4966125488282	-213.0709838867189	757.4378051757815	321.1485900878907	-237.0918884277345	523.1629638671877	289.5513916015626	-202.2059631347657	317.4337158203126	243.2451934814454	-208.9681549072267	79.80434417724612	220.8188323974611	-251.1342620849611	38.30184936523439	169.1944732666016	-230.8934173583986	44.54202270507814	365.964813232422	-590.0584106445315	668.3980102539065	314.7445678710939	-564.043151855469	513.1228027343752	296.9728393554689	-593.3743896484377	267.6655578613282	247.6221771240236	-586.770202636719	83.47976684570315	220.7098236083986	-533.035339355469	46.62652587890626	165.7157897949219	-570.7068481445315	42.87508392333986	363.5568847656251	-411.9939270019534	929.7114257812505	311.5884094238282	-411.5664978027346	926.412719726563	441.5252685546877	-282.0463256835939	926.8769531250005	311.0889892578126	-409.1477355957034	1059.617919921875	314.8769836425782	-295.7119750976564	517.0001220703127	275.914764404297	-384.8304443359377	471.7081298828127	679.4783935546877	107.1297912597657	559.3515625000002	369.626922607422	-347.0297241210939	928.110961914063	310.7213439941407	-253.3359832763673	74.91381835937503	226.5267944335939	-194.8355102539064	33.66936492919923	645.9127197265627	166.1372833251954	121.1510162353516	172.5613250732422	-293.6825561523439	495.8282775878909	273.549530029297	-225.8018493652345	68.20327758789065	360.2235717773439	-247.1952972412111	257.8382873535157	356.4102783203126	-37.13581848144533	89.08384704589847	340.1542053222657	-245.3235931396486	62.18476104736331	170.4438476562501	-219.2945861816407	70.2094421386719	423.4834899902346	-226.4257202148439	133.421127319336	422.2124023437502	-156.4059143066407	77.16961669921878	416.7936706542971	-225.8018493652345	68.20326995849612	360.2235717773439	-504.915222167969	510.0227050781252	284.5418395996095	-419.7827758789065	476.9977722167971	697.7089843750002	-91.3742370605469	488.3403320312502	197.5992736816407	-476.9580688476565	931.3117675781255	312.4554443359376	-541.9375610351565	79.60464477539065	220.8371887207032	-548.3129882812502	19.34686279296876	631.6717529296877	-128.2028198242188	43.84340667724611	222.0124664306642	-506.7295837402346	488.9295043945315	281.419891357422	-581.2237548828127	65.58679962158206	353.633514404297	-564.5125732421877	259.1497192382814	360.4858398437501	-390.9825439453127	47.89188385009767	389.522399902344	-544.866394042969	69.20735168457034	162.6940917968751	-593.3427734375002	64.37993621826175	417.2800292968752	-587.772399902344	128.9009399414063	419.5641174316409	-529.9290771484377	58.48165512084964	429.2429809570315	-581.2236328125002	65.58677673339847	353.6335449218751	-390.157653808594	1620.756958007813	216.3022613525392	-417.2549743652346	1680.982666015626	433.8790283203127	-164.4003143310547	1628.611328125001	242.2442779541017	-390.802185058594	1839.873901367188	155.5699310302735	-226.9482421875001	1443.786376953125	268.747039794922	-142.8047180175782	1462.594604492188	449.3993225097659	-213.3156890869142	1641.667358398438	241.7953186035157	-408.064636230469	1467.418823242188	350.6463012695314	-585.0295410156252	1447.80322265625	256.945281982422	-680.4754638671877	1468.737548828125	432.823181152344	-577.6320800781252	1248.659545898438	284.6633605957032	-408.064636230469	1467.418701171875	350.6462707519532	-408.0646972656252	1467.418823242188	350.6462707519532	-414.1830749511721	1469.414184570313	551.229187011719	-608.656921386719	1467.853637695313	344.5232849121095	-408.5601806640627	1266.7431640625	352.6274414062501	47.94688796997072	1361.6982421875	292.9482421875001	71.51606750488284	1356.046020507813	6.061492919921879	-34.32479476928712	1085.797607421875	291.6249389648439	-226.9483184814454	1443.786376953125	268.7469482421876	-39.64990615844728	1386.62060546875	542.8254394531252	182.9368438720704	1319.840454101563	627.5158691406252	-110.3288726806641	1149.597045898438	541.688659667969	41.81509017944337	1363.442749023438	310.4396362304689	-79.9750671386719	1402.783081054688	701.2508544921877	-64.92176055908206	1565.863891601563	688.4451293945315	78.55944824218753	1391.4091796875	742.7641601562502	-39.64992904663087	1386.620727539063	542.8255615234377	-850.7420043945317	1359.573608398438	249.2661437988282	-824.4617309570317	1304.21484375	-24.03094482421876	-935.316284179688	1619.568725585938	188.4691314697266	-585.0296630859377	1447.803344726563	256.9453125000001	-818.5234985351567	1429.080444335938	501.6900939941409	-1050.472290039063	1364.69775390625	549.0234375000002	-892.6030883789067	1656.813232421876	448.4371643066409	-848.4866333007817	1364.438842773438	266.9359130859376	-799.2941894531255	1455.760620117188	659.4915161132815	-820.424438476563	1613.729003906251	635.3581542968752	-640.654235839844	1473.5673828125	637.1492919921877	-818.523559570313	1429.08056640625	501.6900634765627	-8.35380840301514	12.58950328826905	-3.371739387512209	1.937263846397401	-20.22688865661622	1.137092828750611	0	0	7.549666881561283	-3.375175573056001e-14	1.25202488899231	7.55147743225098	-2.526969671249391	11.49532127380371	-2.346124410629273	-0.1361620873212815	-12.17166900634766	4.736646175384523	3.928324408385838e-13	-10.48282814025879	6.368540287017826	0	0	6.261822700500492	-1.254726767539978	-0.188465714454651	1.450109004974366	1.254726767539978	0.188465714454651	1.450109004974366	-6.469317436218265	-5.870161533355715	-91.81640625000003	-5.020095348358156	-10.77890968322754	-88.91369628906253	2.055451631546021	4.827767848968508	-14.79017162322999	-2.055451631546021	-4.827767848968508	-14.79017162322999	1.174262404441834	1.939794182777406	-1.980768561363221	-1.174262404441834	-1.939794182777406	-1.980768561363221	73.50325775146487	0.3103753626346589	2.984827518463136	-7.454425154781393e-16	1.855456109936538e-12	105.201759338379	1.6371648311615	102.1616287231446	-4.748139381408693	71.51426696777347	-11.45048618316651	-0.09238022565841678	1.590277359294756e-15	-1.110013556765433e-12	103.009147644043	-5.444301128387453	99.51426696777349	-1.87976622581482	0.1414733976125718	-1.747065901756288	-0.5656252503395083	-0.1414733976125718	1.747065901756288	-0.5656252503395083	-0.1624147146940232	-6.844382286071781	15.49170875549317	0.1624147146940232	6.844382286071781	15.49170875549317	
89	0.88	-350.3838500976564	1742.078979492188	391.7822875976565	-475.8308410644534	1732.193481445313	369.831512451172	-324.5722656250001	1697.494384765626	243.2599182128907	-465.944519042969	1697.406372070313	232.270721435547	-400.9236755371096	1518.696166992188	213.1122283935548	-402.8792114257815	1255.743286132813	167.1714935302735	-408.2514953613284	1467.484130859375	357.7260742187501	-407.4055786132815	1288.115966796875	408.0142517089846	-451.4366760253909	1350.099975585938	143.0990142822266	-222.9572296142579	1501.088134765625	260.9743041992189	-91.91552734375003	1455.2685546875	273.3098144531251	59.99137878417972	1403.19384765625	297.5140991210939	37.81015396118165	1409.829467773438	429.484069824219	-73.46235656738284	1395.281372070313	525.1651611328127	-4.407430648803713	1391.556518554688	559.1765136718752	-57.4389572143555	1419.354614257813	620.102478027344	-587.1373291015627	1505.246459960938	249.0129394531251	-756.832946777344	1437.470703125	229.0608520507814	-864.1977539062505	1400.68212890625	244.4378051757814	-833.8948364257817	1442.253784179688	380.0382690429689	-781.8526000976567	1440.06640625	494.6567382812502	-857.167602539063	1431.591064453125	505.0455322265627	-812.1471557617192	1467.0078125	576.9044189453127	-300.9430541992189	1026.025390625	362.8862609863282	-518.315368652344	1030.757568359375	363.738739013672	-345.6470336914064	1034.796142578125	173.334457397461	-483.643981933594	1031.863159179688	172.6009216308594	-213.0952758789064	757.463806152344	321.2403564453126	-237.1145019531251	523.1926269531252	289.5615234375001	-202.2012786865236	317.4591369628907	243.2453918457032	-208.9929504394532	79.8255310058594	220.8179626464845	-251.1091918945314	38.29387283325197	169.1795196533204	-230.8623046875001	44.53207015991212	365.9601440429689	-590.0247802734377	668.377136230469	314.8016357421876	-564.3670654296877	513.197204589844	297.149383544922	-593.3563232421877	267.6665344238282	247.6455230712892	-586.745544433594	83.50124359130862	220.7147521972657	-533.0183105468752	46.6329689025879	165.7166442871094	-570.7136840820315	42.88176345825197	363.5345153808595	-411.9798278808596	929.7166137695317	311.6934509277345	-411.5422363281252	926.4109497070317	441.630065917969	-282.032196044922	926.8876342773442	311.1838378906251	-409.1388244628909	1059.623046875	314.9888000488282	-295.730438232422	517.0401611328127	275.9024658203126	-384.988464355469	471.6301269531252	679.3950195312502	107.0575256347657	559.318054199219	369.7627258300782	-347.015594482422	928.119018554688	310.8212890625001	-253.3621826171876	74.93689727783206	226.5167694091798	-194.9473114013673	33.68393707275392	645.9298095703127	166.1397094726563	121.158073425293	172.6357727050782	-293.7015075683595	495.8682250976565	273.5374450683595	-225.8252410888673	68.22407531738284	360.2128295898439	-247.2091217041017	257.8602294921876	356.4013061523439	-37.15853881835939	89.09516906738284	340.1391601562501	-245.3517608642579	62.20780944824222	170.4334869384766	-219.3164062500001	70.2294845581055	423.4726257324221	-226.4443664550782	133.4415283203126	422.202087402344	-156.4275207519532	77.1865158081055	416.7814025878909	-225.8252563476564	68.22404479980472	360.212860107422	-505.2341918945315	510.0444030761721	284.755828857422	-420.3852233886721	477.0676879882815	697.9812011718752	-91.66156005859378	487.993347167969	198.0758056640626	-476.9441223144534	931.314331054688	312.565643310547	-541.9111938476565	79.64997863769534	220.9211273193361	-548.983581542969	19.32714462280274	631.7009887695315	-128.1935119628907	44.11166000366212	222.8253326416017	-507.0317077636721	488.9507446289065	281.6272888183595	-581.2088623046877	65.62382507324222	353.7131958007814	-564.6123657226565	259.1972961425782	360.5465393066407	-390.9626770019534	48.04460144042972	389.6324157714846	-544.825134277344	69.24455261230472	162.7787475585938	-593.3367309570315	64.41693878173831	417.3579711914065	-587.8045654296877	128.9414520263672	419.6357116699221	-529.921325683594	58.55722427368167	429.3310241699221	-581.2088623046877	65.62382507324222	353.7131652832032	-390.1036071777346	1620.715332031251	216.3369903564454	-417.2480163574221	1681.068969726563	433.8724670410159	-164.352035522461	1628.627075195313	242.3115539550782	-390.7783813476565	1839.794921875001	155.4707489013672	-226.9142303466798	1443.752807617188	268.7840881347657	-142.7214355468751	1462.550537109375	449.4461059570315	-213.2556915283204	1641.660156250001	241.8268127441407	-408.037292480469	1467.414916992188	350.729705810547	-585.0169067382815	1447.838134765625	256.9996032714845	-680.4865722656252	1468.78173828125	432.889587402344	-577.6604003906252	1248.668579101563	284.7081298828126	-408.0372314453127	1467.414794921875	350.729705810547	-408.0372314453127	1467.414794921875	350.7297363281251	-414.1806335449221	1469.401977539063	551.3375244140627	-608.6542968750002	1467.857543945313	344.5816650390626	-408.5406494140627	1266.71337890625	352.7023925781251	47.98254394531251	1361.638671875	292.9098205566407	71.50637817382815	1356.098388671875	6.014404296875004	-34.30602264404298	1085.740966796875	291.4905395507814	-226.9141235351564	1443.752685546875	268.7840881347657	-39.62590408325197	1386.48291015625	542.8142700195315	182.9734954833985	1319.655395507813	627.4941406250002	-110.324447631836	1149.4443359375	541.594909667969	41.84995651245119	1363.377685546875	310.4031677246095	-79.99575805664065	1402.600341796875	701.230895996094	-64.91943359375003	1565.681518554688	688.4809570312502	78.52326965332034	1391.194702148438	742.787292480469	-39.62588119506837	1386.483032226563	542.8142700195315	-850.7038574218755	1359.618041992188	249.3270721435548	-824.4174194335942	1304.218627929688	-23.93309020996094	-935.2656250000005	1619.578247070313	188.4895019531251	-585.0170898437502	1447.838134765625	256.9996643066407	-818.498413085938	1429.16796875	501.7514953613284	-1050.459106445313	1364.791137695313	549.0836181640627	-892.5770874023442	1656.901245117188	448.4559020996096	-848.4494018554692	1364.486572265625	266.9968261718751	-799.2668457031255	1455.844604492188	659.5461425781252	-820.3718261718755	1613.809326171876	635.4129638671877	-640.6307373046877	1473.626220703125	637.2059326171877	-818.4983520507817	1429.16796875	501.7514648437502	-8.347721099853519	12.61442089080811	-3.384028196334841	1.931360244750977	-20.23762702941895	1.121024131774903	0	0	7.54846286773682	2.471968484941968e-13	1.238987803459168	7.550231933593754	-2.574350118637086	11.45182037353516	-2.329586505889893	-0.04489348828792573	-12.22352600097657	4.749231338500978	2.1171480096404e-13	-10.39123725891114	6.392099857330326	0	0	6.286821365356449	-1.252421975135804	-0.1929494887590409	1.453107833862305	1.252421975135804	0.1929494887590409	1.453107833862305	-6.466424942016605	-5.871599197387697	-91.81574249267581	-4.985686779022219	-10.78681468963623	-88.91363525390628	2.072373628616334	4.829232692718508	-14.82596015930176	-2.072373628616334	-4.829232692718508	-14.82596015930176	1.169962644577027	1.951276421546937	-1.981263041496278	-1.169962644577027	-1.951276421546937	-1.981263041496278	73.50093078613284	0.325083613395691	2.963763236999513	2.484808473159729e-16	-4.842021965670298e-13	105.2125625610352	1.635157704353333	102.157585144043	-4.732766151428224	71.51213836669925	-11.4603385925293	-0.08384189754724505	0	1.789061994795887e-14	103.007682800293	-5.454948425292971	99.52100372314459	-1.878531694412232	0.1437265723943711	-1.753989696502686	-0.5631251335144045	-0.1437265723943711	1.753989696502686	-0.5631251335144045	-0.1700487881898881	-6.856339931488041	15.52673625946046	0.1700487881898881	6.856339931488041	15.52673625946046	
